<svg width="42" height="42" viewBox="0 0 42 42" fill="none" xmlns="http://www.w3.org/2000/svg">
<g id="vuesax/linear/profile-2user">
<g id="vuesax/linear/profile-2user_2">
<g id="profile-2user">
<path id="Vector" d="M16.0302 19.0229C15.8552 19.0054 15.6452 19.0054 15.4527 19.0229C11.2877 18.8829 7.98024 15.4704 7.98024 11.2704C7.98024 6.98287 11.4452 3.50037 15.7502 3.50037C20.0377 3.50037 23.5202 6.98287 23.5202 11.2704C23.5027 15.4704 20.1952 18.8829 16.0302 19.0229Z" stroke="#00AC4F" stroke-width="2.625" stroke-linecap="round" stroke-linejoin="round"/>
<path id="Vector_2" d="M28.7172 6.99963C32.1122 6.99963 34.8422 9.74713 34.8422 13.1246C34.8422 16.4321 32.2172 19.1271 28.9447 19.2496C28.8047 19.2321 28.6472 19.2321 28.4897 19.2496" stroke="#00AC4F" stroke-width="2.625" stroke-linecap="round" stroke-linejoin="round"/>
<path id="Vector_3" d="M7.28051 25.4796C3.04551 28.3146 3.04551 32.9346 7.28051 35.7521C12.093 38.9721 19.9855 38.9721 24.798 35.7521C29.033 32.9171 29.033 28.2971 24.798 25.4796C20.003 22.2771 12.1105 22.2771 7.28051 25.4796Z" stroke="#00AC4F" stroke-width="2.625" stroke-linecap="round" stroke-linejoin="round"/>
<path id="Vector_4" d="M32.0947 35.0004C33.3547 34.7379 34.5447 34.2304 35.5247 33.4779C38.2547 31.4304 38.2547 28.0529 35.5247 26.0054C34.5622 25.2704 33.3897 24.7804 32.1472 24.5004" stroke="#00AC4F" stroke-width="2.625" stroke-linecap="round" stroke-linejoin="round"/>
</g>
</g>
</g>
</svg>
